<svg width="196" height="31" viewBox="0 0 196 31" fill="none" xmlns="http://www.w3.org/2000/svg">
<path d="M31.8609 16.98L34.5809 9H38.6009L32.5409 23.82L28.0209 15.38L23.5209 23.82L17.4609 9H21.4609L24.2209 16.98L28.0209 8.3L31.8609 16.98ZM40.3773 20.3L40.6173 17.72H47.5573L47.7773 20.3H40.3773ZM44.0373 14.14L42.0773 18.66L42.2373 19.4L40.4973 23H36.6773L44.0373 8.12L51.4173 23H47.5773L45.8973 19.54L46.0173 18.68L44.0373 14.14ZM52.8843 9H56.2643V20.1H61.8843V23H52.8843V9ZM63.4507 9H66.8307V20.1H72.4507V23H63.4507V9ZM74.0171 9H77.4571V23H74.0171V9ZM81.9634 18.08C82.2434 18.5867 82.5567 19.0267 82.9034 19.4C83.2634 19.7733 83.65 20.06 84.0634 20.26C84.49 20.46 84.9367 20.56 85.4034 20.56C85.8967 20.56 86.3034 20.44 86.6234 20.2C86.9434 19.9467 87.1034 19.6067 87.1034 19.18C87.1034 18.82 87.01 18.5333 86.8234 18.32C86.6367 18.0933 86.3367 17.88 85.9234 17.68C85.51 17.48 84.9634 17.2533 84.2834 17C83.95 16.88 83.5634 16.7133 83.1234 16.5C82.6967 16.2867 82.29 16.0133 81.9034 15.68C81.5167 15.3333 81.1967 14.92 80.9434 14.44C80.69 13.9467 80.5634 13.3533 80.5634 12.66C80.5634 11.8333 80.7767 11.12 81.2034 10.52C81.6434 9.92 82.23 9.46667 82.9634 9.16C83.71 8.84 84.5367 8.68 85.4434 8.68C86.3767 8.68 87.1834 8.83333 87.8634 9.14C88.5567 9.44667 89.13 9.83333 89.5834 10.3C90.0367 10.7667 90.3834 11.24 90.6234 11.72L88.0434 13.16C87.8434 12.8267 87.61 12.54 87.3434 12.3C87.09 12.0467 86.8034 11.8533 86.4834 11.72C86.1767 11.5733 85.8434 11.5 85.4834 11.5C85.0034 11.5 84.6367 11.6067 84.3834 11.82C84.13 12.02 84.0034 12.2733 84.0034 12.58C84.0034 12.9 84.1234 13.18 84.3634 13.42C84.6167 13.66 84.97 13.88 85.4234 14.08C85.89 14.28 86.45 14.4933 87.1034 14.72C87.5967 14.9067 88.0567 15.1267 88.4834 15.38C88.91 15.62 89.2834 15.9133 89.6034 16.26C89.9367 16.6067 90.1967 17.0067 90.3834 17.46C90.57 17.9133 90.6634 18.4333 90.6634 19.02C90.6634 19.7267 90.5167 20.36 90.2234 20.92C89.9434 21.4667 89.5567 21.9267 89.0634 22.3C88.5834 22.6733 88.03 22.9533 87.4034 23.14C86.79 23.34 86.1567 23.44 85.5034 23.44C84.5967 23.44 83.75 23.28 82.9634 22.96C82.19 22.6267 81.5167 22.18 80.9434 21.62C80.37 21.06 79.9234 20.4467 79.6034 19.78L81.9634 18.08ZM95.7034 16C95.7034 16.8267 95.8634 17.56 96.1834 18.2C96.5167 18.8267 96.9767 19.32 97.5634 19.68C98.1634 20.04 98.8634 20.22 99.6634 20.22C100.45 20.22 101.137 20.04 101.723 19.68C102.323 19.32 102.783 18.8267 103.103 18.2C103.437 17.56 103.603 16.8267 103.603 16C103.603 15.1733 103.443 14.4467 103.123 13.82C102.803 13.18 102.35 12.68 101.763 12.32C101.177 11.96 100.477 11.78 99.6634 11.78C98.8634 11.78 98.1634 11.96 97.5634 12.32C96.9767 12.68 96.5167 13.18 96.1834 13.82C95.8634 14.4467 95.7034 15.1733 95.7034 16ZM92.1234 16C92.1234 14.92 92.31 13.9333 92.6834 13.04C93.07 12.1467 93.6034 11.3733 94.2834 10.72C94.9634 10.0667 95.7634 9.56667 96.6834 9.22C97.6034 8.86 98.5967 8.68 99.6634 8.68C100.743 8.68 101.737 8.86 102.643 9.22C103.563 9.56667 104.363 10.0667 105.043 10.72C105.723 11.3733 106.25 12.1467 106.623 13.04C106.997 13.9333 107.183 14.92 107.183 16C107.183 17.08 106.997 18.0733 106.623 18.98C106.263 19.8867 105.743 20.6733 105.063 21.34C104.397 22.0067 103.603 22.5267 102.683 22.9C101.763 23.26 100.757 23.44 99.6634 23.44C98.5567 23.44 97.5434 23.26 96.6234 22.9C95.7034 22.5267 94.9034 22.0067 94.2234 21.34C93.5567 20.6733 93.0367 19.8867 92.6634 18.98C92.3034 18.0733 92.1234 17.08 92.1234 16ZM119.009 9H122.269V23.7L112.589 15.12V23H109.349V8.3L119.009 16.88V9ZM125.088 21.64C125.088 21.1333 125.268 20.7 125.628 20.34C125.988 19.98 126.435 19.8 126.968 19.8C127.528 19.8 127.981 19.98 128.328 20.34C128.675 20.7 128.848 21.1333 128.848 21.64C128.848 22.1467 128.675 22.58 128.328 22.94C127.981 23.3 127.528 23.48 126.968 23.48C126.435 23.48 125.988 23.3 125.628 22.94C125.268 22.58 125.088 22.1467 125.088 21.64ZM131.673 9H135.153V23H131.673V9ZM136.673 23H133.913V20H136.553C137.087 20 137.6 19.9333 138.093 19.8C138.6 19.6667 139.04 19.4467 139.413 19.14C139.8 18.8333 140.107 18.4267 140.333 17.92C140.56 17.4 140.673 16.76 140.673 16C140.673 15.24 140.56 14.6067 140.333 14.1C140.107 13.58 139.8 13.1667 139.413 12.86C139.04 12.5533 138.6 12.3333 138.093 12.2C137.6 12.0667 137.087 12 136.553 12H133.913V9H136.673C138.207 9 139.533 9.28667 140.653 9.86C141.773 10.4333 142.64 11.24 143.253 12.28C143.867 13.32 144.173 14.56 144.173 16C144.173 17.4267 143.867 18.6667 143.253 19.72C142.64 20.76 141.773 21.5667 140.653 22.14C139.533 22.7133 138.207 23 136.673 23ZM148.581 23V20.22H155.641V23H148.581ZM148.581 11.78V9H155.641V11.78H148.581ZM148.581 17V14.28H155.241V17H148.581ZM146.341 9H149.581V23H146.341V9ZM164.252 17.36L167.672 9H171.632L164.252 23.88L156.892 9H160.832L164.252 17.36Z" fill="white"/>
<path d="M180.404 9.8H182.724L175.892 23.4H173.476L180.404 9.8ZM190.171 15.8L184.271 13.4V10.44L194.471 14.72V16.74L184.271 21.02V18.04L190.171 15.8Z" fill="white"/>
<path d="M5.70352 16.64L11.6035 19.04V22.02L1.40352 17.74V15.72L11.6035 11.44V14.4L5.70352 16.64Z" fill="white"/>
</svg>
